<svg width="262" height="243" viewBox="0 0 262 243" fill="none" xmlns="http://www.w3.org/2000/svg">
<g clip-path="url(#clip0_25_9)">
<path d="M85.5927 163.165H117.156C118.205 163.262 119.258 163.031 120.168 162.502C121.079 161.974 121.801 161.175 122.233 160.217C124.188 156.58 126.167 153.085 128.384 149.52C130.196 146.738 128.908 146.429 126.429 146.453H97.1547C96.1794 146.548 95.1985 146.341 94.3454 145.86C93.4923 145.38 92.8084 144.649 92.3868 143.767C80.8248 123.632 68.9053 103.711 57.5578 83.481C44.8039 60.7787 51.455 29.685 71.8613 13.2823C83.6749 3.97323 98.5316 -0.634703 113.556 0.350334C116.417 0.350334 115.94 1.65779 114.986 3.36938C108.2 15.0176 101.422 26.6659 94.6515 38.3142C90.6466 45.3269 86.5939 52.411 82.3982 59.3999C81.8978 60.0921 81.6285 60.9238 81.6285 61.7771C81.6285 62.6305 81.8978 63.4621 82.3982 64.1543C84.5914 67.7914 86.7846 71.4523 88.7156 75.2083C90.1459 78.0372 91.0995 77.8232 92.6014 75.2083C97.3692 66.8643 102.28 58.5679 106.905 50.224C107.34 49.2465 108.083 48.437 109.02 47.918C109.958 47.399 111.04 47.1987 112.102 47.3475H180.83C210.867 47.6566 236.065 73.1639 236.185 103.164C236.161 115.078 232.711 126.736 226.244 136.754C224.742 139.131 223.979 139.131 222.549 136.754C212.226 118.45 201.522 100.359 191.105 82.1497C190.6 80.9085 189.696 79.8691 188.536 79.1939C187.376 78.5187 186.024 78.2457 184.692 78.4175C180.944 78.6315 177.188 78.6315 173.44 78.4175C170.698 78.4175 169.697 78.7741 171.437 81.6743C176.372 89.9232 180.973 98.3147 185.884 106.611C186.565 107.557 186.931 108.692 186.931 109.856C186.931 111.02 186.565 112.155 185.884 113.101C174.846 131.928 163.976 150.875 152.962 169.726C141.948 188.577 125.905 198.252 104.497 198.823C82.7081 199.417 66.0684 189.67 54.2442 171.532C53.2906 170.082 52.4324 168.537 51.6219 166.992C49.7624 163.569 49.9293 163.236 53.7436 163.236C64.4235 163.141 74.9604 163.165 85.5927 163.165ZM130.482 78.4175H94.1032C91.7193 78.4175 90.7896 78.679 92.2915 81.2226C104.259 101.825 116.178 122.427 128.05 143.03C129.504 145.55 130.434 146.168 132.127 143.196C143.999 122.594 155.918 101.991 167.885 81.389C169.387 78.7979 168.744 78.3224 166.026 78.3462C154.249 78.4175 142.378 78.4175 130.482 78.4175Z" fill="#B48959"/>
<path d="M110.886 207.333H142.401C143.504 207.483 144.627 207.281 145.608 206.756C146.588 206.231 147.377 205.409 147.86 204.409C162.768 178.323 177.787 152.277 192.916 126.271C193.512 125.248 193.775 123.465 195.157 123.561C196.54 123.656 196.659 125.367 197.279 126.413C202.047 134.591 206.815 142.84 211.582 150.97C212.152 151.773 212.458 152.732 212.458 153.715C212.458 154.699 212.152 155.658 211.582 156.461C200.307 176.192 189.054 196.136 177.23 215.677C155.131 252.214 101.946 252.048 79.7281 215.534C78.274 213.157 75.151 210.186 76.2 208.165C77.2489 206.144 81.4446 207.428 84.2338 207.381C93.0304 207.238 101.994 207.333 110.886 207.333ZM60.1324 146.548H45.8289C44.9269 146.664 44.011 146.497 43.2081 146.072C42.4052 145.646 41.7548 144.981 41.3471 144.171C30.1189 124.559 18.5331 105.137 7.49553 85.4302C2.60616 76.8922 0.0234558 67.2345 0.000159017 57.4025C-0.0231378 47.5704 2.51377 37.9007 7.36262 29.3397C12.2115 20.7787 19.2062 13.6196 27.6622 8.56309C36.1182 3.50656 45.7458 0.725808 55.6029 0.492953C58.559 0.492953 62.9454 -0.885821 64.1373 0.968393C65.5677 3.17919 62.1587 6.15069 60.7045 8.67052C51.1688 25.2634 41.6332 41.7928 32.0975 58.2589C31.3311 59.2906 30.9174 60.5407 30.9174 61.8247C30.9174 63.1087 31.3311 64.3587 32.0975 65.3905C47.0685 91.0484 61.9839 116.746 76.8436 142.483C79.2275 146.572 79.2275 146.596 74.4597 146.596L60.1324 146.548ZM249.677 95.0579C245.768 88.3542 241.93 81.8169 238.115 75.2558C230.964 62.728 223.55 50.2239 216.398 37.6248C215.937 36.5624 215.152 35.6716 214.156 35.0786C213.159 34.4855 212 34.2203 210.843 34.3205H119.945C117.084 34.3205 116.25 34.1065 117.99 31.2064C122.949 23.0605 127.756 14.7482 132.413 6.26955C132.854 5.26137 133.603 4.41772 134.554 3.85862C135.504 3.29952 136.606 3.05345 137.705 3.15542C160.138 3.15542 182.546 2.98901 204.955 3.29805C226.911 3.58331 243.813 13.4249 254.445 32.49C265.078 51.5552 264.195 70.5252 253.635 89.2575C252.73 91.4421 251.383 93.4168 249.677 95.0579Z" fill="#D52441"/>
</g>
<defs>
<clipPath id="clip0_25_9">
<rect width="262" height="243" fill="white"/>
</clipPath>
</defs>
</svg>
